<svg width="24" height="20" viewBox="0 0 24 20" fill="none" xmlns="http://www.w3.org/2000/svg">
<path d="M16.9219 0.09375C14.9645 0.09375 13.2653 0.985474 12 2.67481C10.7344 0.985474 9.03516 0.09375 7.07812 0.09375C3.42297 0.09375 0.75 3.09778 0.75 6.78406C0.75 11.5499 5.36902 14.5437 11.0848 19.4425C11.3481 19.6681 11.6741 19.7813 12 19.7809C12.3259 19.7809 12.6519 19.6681 12.9152 19.4425C18.6379 14.5375 23.25 11.5481 23.25 6.78406C23.25 3.10071 20.5796 0.09375 16.9219 0.09375ZM12 16.5286C6.84998 12.178 3.5625 9.83204 3.5625 6.78406C3.5625 4.57325 5.07385 2.90625 7.07812 2.90625C9.68445 2.90625 10.6069 5.96521 10.6472 6.10364C10.8193 6.70752 11.3712 7.12501 12 7.12501C12.6306 7.12501 13.184 6.70496 13.3539 6.09778C13.363 6.06592 14.2782 2.90625 16.9219 2.90625C18.9258 2.90625 20.4375 4.57325 20.4375 6.78406C20.4375 9.8346 17.1456 12.1816 12 16.5286Z" fill="white"/>
</svg>
